<svg xmlns="http://www.w3.org/2000/svg" viewBox="0 0 100 100" width="100" height="100">
  <defs>
    <linearGradient id="b2" x1="0%" y1="0%" x2="100%" y2="0%">
      <stop offset="0%" stop-color="#8e9aaf" stop-opacity="0.1"/>
      <stop offset="20%" stop-color="#c9b8d9" stop-opacity="0.8"/>
      <stop offset="70%" stop-color="#a8b5d6" stop-opacity="0.8"/>
      <stop offset="100%" stop-color="#8e9aaf" stop-opacity="0.1"/>
    </linearGradient>
    <linearGradient id="b3" x1="0%" y1="100%" x2="0%" y2="0%">
      <stop offset="0%" stop-color="#8fa3bf" stop-opacity="0.2"/>
      <stop offset="50%" stop-color="#c9b8d9"/>
      <stop offset="100%" stop-color="#b5a7c9" stop-opacity="0.2"/>
    </linearGradient>
    <radialGradient id="comet_glow_outer" cx="50%" cy="50%" r="50%">
      <stop offset="0%" stop-color="#d8cee8" stop-opacity="0.12"/>
      <stop offset="40%" stop-color="#d8cee8" stop-opacity="0.06"/>
      <stop offset="70%" stop-color="#d8cee8" stop-opacity="0.02"/>
      <stop offset="100%" stop-color="#d8cee8" stop-opacity="0"/>
    </radialGradient>
    <radialGradient id="comet_glow_mid" cx="50%" cy="50%" r="50%">
      <stop offset="0%" stop-color="#ddd4ee" stop-opacity="0.35"/>
      <stop offset="30%" stop-color="#d5cbe5" stop-opacity="0.18"/>
      <stop offset="60%" stop-color="#d0c6e0" stop-opacity="0.06"/>
      <stop offset="100%" stop-color="#ccc0da" stop-opacity="0"/>
    </radialGradient>
    <radialGradient id="comet_core" cx="50%" cy="50%" r="50%">
      <stop offset="0%" stop-color="#f5f0ff" stop-opacity="1"/>
      <stop offset="40%" stop-color="#ece4f8" stop-opacity="0.9"/>
      <stop offset="70%" stop-color="#e0d8f0" stop-opacity="0.5"/>
      <stop offset="100%" stop-color="#d8cee8" stop-opacity="0"/>
    </radialGradient>
    <radialGradient id="node_glow" cx="50%" cy="50%" r="50%">
      <stop offset="0%" stop-color="#ddd4ee" stop-opacity="0.8"/>
      <stop offset="40%" stop-color="#d0c8e2" stop-opacity="0.4"/>
      <stop offset="70%" stop-color="#c9c0da" stop-opacity="0.12"/>
      <stop offset="100%" stop-color="#c0b8d0" stop-opacity="0"/>
    </radialGradient>
    <radialGradient id="arrow_node" cx="50%" cy="50%" r="50%">
      <stop offset="0%" stop-color="#b8c4d8" stop-opacity="0.6"/>
      <stop offset="50%" stop-color="#a8b5cc" stop-opacity="0.2"/>
      <stop offset="100%" stop-color="#a0aec0" stop-opacity="0"/>
    </radialGradient>
    <linearGradient id="wisp_fade" x1="0%" y1="0%" x2="100%" y2="0%">
      <stop offset="0%" stop-color="#c9b8d9" stop-opacity="1"/>
      <stop offset="100%" stop-color="#c9b8d9" stop-opacity="0"/>
    </linearGradient>
    <linearGradient id="wisp_fade_light" x1="0%" y1="0%" x2="100%" y2="0%">
      <stop offset="0%" stop-color="#d5c8e0" stop-opacity="1"/>
      <stop offset="100%" stop-color="#d5c8e0" stop-opacity="0"/>
    </linearGradient>
  </defs>

  <g transform="translate(52, 50)">
    <g transform="translate(7, -4.5) rotate(-30 -8.5 -2) scale(1.15)">
      <path d="M -18 -32 C -38 -18, -38 18, -18 32" stroke="#b5a7c9" stroke-width="6" fill="none" opacity="0.04" stroke-linecap="round"/>
      <path d="M -18 -32 C -38 -18, -38 18, -18 32" stroke="#b5a7c9" stroke-width="4" fill="none" opacity="0.08" stroke-linecap="round"/>
      <path d="M -18 -32 C -38 -18, -38 18, -18 32" stroke="url(#b3)" stroke-width="1.8" fill="none" opacity="0.55" stroke-linecap="round"/>
      <path d="M -50 -4 C -38 -2, -26 -6, -18 -2 C -6 6, 10 -8, 35 -3" stroke="#b5b8ce" stroke-width="5" fill="none" opacity="0.04" stroke-linecap="round"/>
      <path d="M -50 -4 C -38 -2, -26 -6, -18 -2 C -6 6, 10 -8, 35 -3" stroke="#b5b8ce" stroke-width="3" fill="none" opacity="0.08" stroke-linecap="round"/>
      <path d="M -50 -4 C -38 -2, -26 -6, -18 -2 C -6 6, 10 -8, 35 -3" stroke="url(#b2)" stroke-width="1" fill="none" opacity="0.75" stroke-linecap="round"/>
      <line x1="-18" y1="-32" x2="35" y2="-3" stroke="#c9b8d9" stroke-width="0.3" opacity="0.2"/>
      <line x1="-18" y1="32" x2="35" y2="-3" stroke="#c9b8d9" stroke-width="0.3" opacity="0.2"/>
      <circle cx="-18" cy="-32" r="5" fill="url(#node_glow)"/>
      <circle cx="-18" cy="-32" r="1.5" fill="#ddd4ee" opacity="0.7"/>
      <circle cx="-18" cy="32" r="5" fill="url(#node_glow)"/>
      <circle cx="-18" cy="32" r="1.5" fill="#ddd4ee" opacity="0.7"/>
      <circle cx="35" cy="-3" r="4" fill="url(#arrow_node)"/>
      <circle cx="35" cy="-3" r="1" fill="#b8c4d8" opacity="0.45"/>
      <circle cx="-52" cy="-4" r="16" fill="url(#comet_glow_outer)"/>
      <circle cx="-52" cy="-4" r="9" fill="url(#comet_glow_mid)"/>
      <circle cx="-52" cy="-4" r="4.5" fill="url(#comet_core)"/>
      <circle cx="-52" cy="-4" r="1.8" fill="#f5f0ff" opacity="0.95"/>
      <path d="M -18 -32 C -12 -33, -4 -31, 2 -32" stroke="url(#wisp_fade)" stroke-width="2.5" fill="none" opacity="0.03" stroke-linecap="round"/>
      <path d="M -18 -32 C -12 -33, -4 -31, 2 -32" stroke="url(#wisp_fade)" stroke-width="1.2" fill="none" opacity="0.08" stroke-linecap="round"/>
      <path d="M -18 -32 C -12 -33, -4 -31, 2 -32" stroke="url(#wisp_fade)" stroke-width="0.4" fill="none" opacity="0.2" stroke-linecap="round"/>
      <path d="M -18 32 C -12 31, -4 33, 2 32" stroke="url(#wisp_fade)" stroke-width="2.5" fill="none" opacity="0.03" stroke-linecap="round"/>
      <path d="M -18 32 C -12 31, -4 33, 2 32" stroke="url(#wisp_fade)" stroke-width="1.2" fill="none" opacity="0.08" stroke-linecap="round"/>
      <path d="M -18 32 C -12 31, -4 33, 2 32" stroke="url(#wisp_fade)" stroke-width="0.4" fill="none" opacity="0.2" stroke-linecap="round"/>
      <path d="M -48 -6 C -42 -7, -36 -6, -30 -5.5" stroke="url(#wisp_fade_light)" stroke-width="2.5" fill="none" opacity="0.03" stroke-linecap="round"/>
      <path d="M -48 -6 C -42 -7, -36 -6, -30 -5.5" stroke="url(#wisp_fade_light)" stroke-width="1.2" fill="none" opacity="0.08" stroke-linecap="round"/>
      <path d="M -48 -6 C -42 -7, -36 -6, -30 -5.5" stroke="url(#wisp_fade_light)" stroke-width="0.4" fill="none" opacity="0.2" stroke-linecap="round"/>
      <path d="M -49 -1 C -43 0, -37 -1.5, -31 -2" stroke="url(#wisp_fade)" stroke-width="2.5" fill="none" opacity="0.03" stroke-linecap="round"/>
      <path d="M -49 -1 C -43 0, -37 -1.5, -31 -2" stroke="url(#wisp_fade)" stroke-width="1.2" fill="none" opacity="0.08" stroke-linecap="round"/>
      <path d="M -49 -1 C -43 0, -37 -1.5, -31 -2" stroke="url(#wisp_fade)" stroke-width="0.4" fill="none" opacity="0.2" stroke-linecap="round"/>
    </g>
  </g>
</svg>
